Coordinates
version=1
nRows=7
nColumns=40
inDegrees=yes

Units are S.I. units (second, meters, Newtons, ...)
Angles are in degrees.

endheader
time	pelvis_tilt	pelvis_list	pelvis_rotation	pelvis_tx	pelvis_ty	pelvis_tz	hip_flexion_r	hip_adduction_r	hip_rotation_r	knee_angle_r	knee_angle_r_beta	ankle_angle_r	subtalar_angle_r	mtp_angle_r	hip_flexion_l	hip_adduction_l	hip_rotation_l	knee_angle_l	knee_angle_l_beta	ankle_angle_l	subtalar_angle_l	mtp_angle_l	lumbar_extension	lumbar_bending	lumbar_rotation	arm_flex_r	arm_add_r	arm_rot_r	elbow_flex_r	pro_sup_r	wrist_flex_r	wrist_dev_r	arm_flex_l	arm_add_l	arm_rot_l	elbow_flex_l	pro_sup_l	wrist_flex_l	wrist_dev_l
     48.87250000	     -7.57928488	     -5.59403508	      3.58517287	      1.01594571	      0.92705985	      0.54804147	     13.29629991	      2.97236102	    -14.88250127	     14.87794780	     14.87794780	     10.90283911	     -1.06979411	     -2.77793444	     41.58489434	    -11.95591799	      3.35855399	     59.79382610	     59.79382610	      5.03925403	    -19.16621620	     16.55957606	    -12.92547005	      5.68702603	      2.68648423	     19.00253921	    -17.17722642	      3.09612417	     93.37963540	     44.39172972	      0.00000000	      0.00000000	      2.02848333	     -6.89274194	     -6.09049059	     37.33877907	     47.00014889	      0.00000000	      0.00000000
     48.88471429	     -7.63539379	     -5.47148982	      3.95946265	      1.01500113	      0.92706103	      0.54762652	     12.72377736	      2.87152987	    -15.00811009	     14.56375020	     14.56375020	     11.18037663	     -1.20056914	     -2.80621689	     42.02743166	    -11.48310097	      3.06694024	     56.55293428	     56.55293428	      5.75071193	    -19.09293237	     16.64774296	    -12.95508310	      5.57558455	      2.45248565	     20.91157958	    -16.63362781	      3.04771203	     95.74804858	     44.33646116	      0.00000000	      0.00000000	      1.37880660	     -6.83653193	     -6.12875320	     35.68696797	     46.97856932	      0.00000000	      0.00000000
     48.89692857	     -7.72963053	     -5.34799706	      4.31405424	      1.01409795	      0.92698156	      0.54696538	     12.18142087	      2.74500279	    -15.15597410	     14.23575188	     14.23575188	     11.41618567	     -1.20915186	     -2.85539469	     42.30484741	    -10.86104881	      3.00542176	     53.03509591	     53.03509591	      6.32758453	    -18.95896598	     16.50374148	    -12.95452813	      5.49424479	      2.37141466	     22.72752412	    -16.26422277	      3.09808170	     98.22447664	     44.27660948	      0.00000000	      0.00000000	      0.86081227	     -6.72064058	     -6.21145841	     33.96700612	     46.96438994	      0.00000000	      0.00000000
     48.90914286	     -7.86993650	     -5.26206065	      4.63276026	      1.01325539	      0.92678677	      0.54617589	     11.67232213	      2.63260556	    -15.45880900	     13.89953003	     13.89953003	     11.68180331	     -0.97242159	     -3.01472015	     42.42952758	    -10.24388633	      3.05577506	     49.24575304	     49.24575304	      6.28308782	    -18.71857709	     15.06838806	    -12.90421633	      5.45418792	      3.00225390	     23.98679138	    -16.69732065	      3.07669703	    101.35335821	     44.23174035	      0.00000000	      0.00000000	      1.20363770	     -6.34682332	     -6.71054361	     31.05175456	     46.98757181	      0.00000000	      0.00000000
     48.92135714	     -7.98858290	     -5.13385650	      4.92036402	      1.01259925	      0.92659053	      0.54519328	     11.11982773	      2.49677195	    -15.59081392	     13.55423684	     13.55423684	     11.95485811	     -0.92756872	     -3.05938989	     42.37120752	     -9.48607234	      3.37002825	     45.42514082	     45.42514082	      6.73102795	    -18.26689419	     14.93687054	    -12.84029965	      5.37517574	      2.94107811	     25.88572160	    -16.12883341	      2.86785617	    103.15404717	     44.20087849	      0.00000000	      0.00000000	      0.40144214	     -6.34676409	     -6.79076139	     30.37048950	     46.97475696	      0.00000000	      0.00000000
     48.93357143	     -8.21205560	     -5.04497345	      5.16431926	      1.01201258	      0.92614394	      0.54411470	     10.69049662	      2.38221465	    -15.73438810	     13.22764208	     13.22764208	     12.22466259	     -0.83154384	     -3.12498861	     42.33215484	     -8.80710484	      3.75712956	     41.65518477	     41.65518477	      7.23907861	    -17.35324240	     14.88637100	    -12.61254576	      5.30846827	      3.14286331	     27.75811273	    -15.98232113	      2.74220719	    104.59676600	     44.17316746	      0.00000000	      0.00000000	     -0.30960766	     -6.28856375	     -6.81971787	     29.91989365	     46.96176239	      0.00000000	      0.00000000
     48.94578571	     -8.20370583	     -5.00333227	      5.38765071	      1.01184687	      0.92594805	      0.54293686	      9.90959056	      2.34055206	    -16.05300972	     12.76776855	     12.76776855	     12.50473606	     -0.33213777	     -3.20347252	     41.87719801	     -8.23338001	      4.27290747	     37.89332321	     37.89332321	      7.58997227	    -16.24900311	     14.31987035	    -12.68969439	      5.36236602	      3.09021257	     29.46872660	    -15.47235274	      3.10532013	    106.93753595	     44.10850810	      0.00000000	      0.00000000	     -1.11247617	     -6.33055666	     -6.87080633	     29.35098964	     46.94381197	      0.00000000	      0.00000000
